<?xml version="1.0" encoding="utf-8"?>
<!-- Generator: Adobe Illustrator 28.0.0, SVG Export Plug-In . SVG Version: 6.00 Build 0)  -->
<svg version="1.1" id="Layer_1" xmlns="http://www.w3.org/2000/svg" xmlns:xlink="http://www.w3.org/1999/xlink" x="0px" y="0px"
	 viewBox="0 0 512 512" style="enable-background:new 0 0 512 512;" xml:space="preserve">
<g>
	<path d="M256,139.64v23.27c25.7,0.05,46.5,20.85,46.55,46.55c-0.05,25.7-20.85,46.5-46.55,46.55c-25.7-0.05-46.5-20.85-46.55-46.55
		c0.05-25.7,20.85-46.5,46.55-46.55V139.64v-23.27c-51.42,0.02-93.08,41.67-93.09,93.09c0.02,51.42,41.67,93.08,93.09,93.09
		c51.42-0.02,93.08-41.67,93.09-93.09c-0.02-51.42-41.67-93.08-93.09-93.09V139.64z"/>
	<path d="M256,23.27V0C140.31,0.02,46.56,93.77,46.55,209.45c-0.01,23.62,2.52,44.56,9.05,64.24c6.5,19.68,16.93,37.57,30.97,55.04
		l0.57,0.69l151.27,174.55c4.41,5.09,10.85,8.03,17.59,8.03c6.74,0,13.18-2.94,17.59-8.03l151.27-174.55l0.57-0.69
		c14.04-17.47,24.47-35.35,30.97-55.04c6.53-19.68,9.06-40.63,9.05-64.24C465.44,93.77,371.69,0.02,256,0V23.27v23.27
		c45.06,0.01,85.64,18.2,115.19,47.71c29.52,29.55,47.7,70.13,47.71,115.19c-0.01,20.41-2.16,35.89-6.69,49.6
		c-4.57,13.7-11.59,26.17-23.1,40.57l18.16,14.56l-17.59-15.24L256,453.19L122.31,298.94l-17.59,15.24l18.16-14.56
		c-11.51-14.4-18.53-26.87-23.1-40.57c-4.54-13.71-6.68-29.18-6.69-49.6c0.01-45.06,18.2-85.64,47.71-115.19
		c29.55-29.52,70.13-47.7,115.19-47.71V23.27z"/>
</g>
</svg>
