<?xml version="1.0" encoding="utf-8"?>
<!-- Generator: Adobe Illustrator 21.0.0, SVG Export Plug-In . SVG Version: 6.00 Build 0)  -->
<svg version="1.1" id="Layer_1" xmlns="http://www.w3.org/2000/svg" xmlns:xlink="http://www.w3.org/1999/xlink" x="0px" y="0px"
	 viewBox="0 0 512 512" style="enable-background:new 0 0 512 512;" xml:space="preserve">
<g>
	<path d="M111.7,0.3c-10.3,0-20.4,3.7-28.9,10.4l-1.2,0.6L81,12L19.6,75.2l0.6,0.6c-19,17.5-24.8,43.7-16.6,66.3v0.6
		c16.7,47.7,59.3,139.7,142.5,222.9c83.5,83.5,176.8,124.4,222.9,142.5h0.6c23.9,8,49.7,2.3,68.2-13.5l62-62
		c16.3-16.3,16.3-44.5,0-60.8L420,292l-0.6-1.2c-16.3-16.3-45.1-16.3-61.4,0L318.6,330c-14.2-6.8-48.1-24.3-80.4-55.3
		c-32.2-30.7-48.6-66-54.7-79.8l39.3-39.3c16.5-16.5,16.8-44-0.6-60.2l0.6-0.6L221,93L142.4,12l-0.6-0.6l-1.2-0.6
		C132.1,4,122,0.3,111.7,0.3z M111.7,39.6l4.3,1.8l78.6,80.4l1.8,1.8c-0.2-0.2,1.2,1.9-1.2,4.3l-49.1,49.1l-9.2,8.6l4.3,12.3
		c0,0,22.6,60.4,70,105.6l4.3,3.7c45.7,41.7,99.5,64.5,99.5,64.5l12.3,5.5l58.3-58.3c3.4-3.4,2.8-3.4,6.1,0l80.4,80.4
		c3.4,3.4,3.4,2.1,0,5.5L412,465.1c-9.1,7.8-18.7,9.4-30.1,5.5c-44.5-17.5-131-55.5-208.2-132.6C96,260.3,55.4,172.1,40.5,129.2
		c-3-8-0.8-19.8,6.1-25.8l1.2-1.2l59.6-60.8L111.7,39.6z"/>
</g>
</svg>
